<svg width="115" height="115" viewBox="0 0 115 115" fill="none" xmlns="http://www.w3.org/2000/svg">
<path opacity="0.4" d="M11.5 23C11.5 16.657 16.657 11.5 23 11.5H49.8633C52.918 11.5 55.8469 12.7039 58.0031 14.8602L77.1398 34.0148C79.2961 36.1711 80.5 39.1 80.5 42.1547V71.893H48.875C42.532 71.893 37.375 77.05 37.375 83.393V103.518H23C16.657 103.518 11.5 98.3609 11.5 92.018V23ZM48.875 22.0117V38.8125C48.875 41.2023 50.7977 43.125 53.1875 43.125H69.9883L48.875 22.0117Z" fill="#0F1422"/>
<path d="M45.2812 83.375C45.2812 81.3984 46.8984 79.7812 48.875 79.7812H54.625C60.5727 79.7812 65.4062 84.6148 65.4062 90.5625C65.4062 96.5102 60.5727 101.344 54.625 101.344H52.4688V106.375C52.4688 108.352 50.8516 109.969 48.875 109.969C46.8984 109.969 45.2812 108.352 45.2812 106.375V83.375ZM52.4688 94.1562H54.625C56.6016 94.1562 58.2188 92.5391 58.2188 90.5625C58.2188 88.5859 56.6016 86.9688 54.625 86.9688H52.4688V94.1562ZM68.2812 83.375C68.2812 81.3984 69.8984 79.7812 71.875 79.7812H77.625C82.782 79.7812 86.9688 83.968 86.9688 89.125V100.625C86.9688 105.782 82.782 109.969 77.625 109.969H71.875C69.8984 109.969 68.2812 108.352 68.2812 106.375V83.375ZM75.4688 86.9688V102.781H77.625C78.8109 102.781 79.7812 101.811 79.7812 100.625V89.125C79.7812 87.9391 78.8109 86.9688 77.625 86.9688H75.4688ZM94.875 79.7812H103.5C105.477 79.7812 107.094 81.3984 107.094 83.375C107.094 85.3516 105.477 86.9688 103.5 86.9688H98.4688V91.2812H103.5C105.477 91.2812 107.094 92.8984 107.094 94.875C107.094 96.8516 105.477 98.4688 103.5 98.4688H98.4688V106.375C98.4688 108.352 96.8516 109.969 94.875 109.969C92.8984 109.969 91.2812 108.352 91.2812 106.375V83.375C91.2812 81.3984 92.8984 79.7812 94.875 79.7812Z" fill="#0F1422"/>
</svg>
