<svg width="25" height="25" viewBox="0 0 25 25" fill="none" xmlns="http://www.w3.org/2000/svg">
<g clip-path="url(#clip0_546_2139)">
<path opacity="0.4" d="M0 0.5V4.96429H3.57143V0.5H0ZM0 6.75V12.1071H11.6071V6.75H0ZM0 13.8929V19.25H3.57143V13.8929H0ZM0 21.0357V25.5H11.6071V21.0357H0ZM5.35714 0.5V4.96429H19.6429V0.5H5.35714ZM5.35714 13.8929V19.25H19.6429V13.8929H5.35714ZM13.3929 6.75V12.1071H25V6.75H13.3929ZM13.3929 21.0357V25.5H25V21.0357H13.3929ZM21.4286 0.5V4.96429H25V0.5H21.4286ZM21.4286 13.8929V19.25H25V13.8929H21.4286Z" fill="#07B6D3"/>
<path d="M3.57143 4.96429H0V6.75H11.6071V12.1071H0V13.8929H3.57143V19.25H0V21.0357H11.6071V25.5H13.3929V21.0357H25V19.25H21.4286V13.8929H25V12.1071H13.3929V6.75H25V4.96429H21.4286V0.5H19.6429V4.96429H5.35714V0.5H3.57143V4.96429ZM19.6429 19.25H5.35714V13.8929H19.6429V19.25Z" fill="#07B6D3"/>
</g>
<defs>
<clipPath id="clip0_546_2139">
<rect width="25" height="25" fill="white"/>
</clipPath>
</defs>
</svg>
