<svg width="15" height="25" viewBox="0 0 15 25" fill="none" xmlns="http://www.w3.org/2000/svg">
<path d="M10.5509 0C8.78406 0 7.0896 0.667501 5.84027 1.85566C4.59093 3.04382 3.88906 4.65531 3.88906 6.33562V9.86301H0.324089C0.145099 9.86301 0 10.001 0 10.1712V14.8288C0 14.999 0.145099 15.137 0.324089 15.137H3.88906V24.6918C3.88906 24.862 4.03416 25 4.21315 25H9.11049C9.28948 25 9.43458 24.862 9.43458 24.6918V15.137H13.0311C13.1798 15.137 13.3095 15.0407 13.3455 14.9035L14.5699 10.246C14.621 10.0515 14.4663 9.86301 14.2555 9.86301H9.43458V6.33562C9.43458 6.05405 9.55219 5.78402 9.76154 5.58492C9.97089 5.38582 10.2548 5.27397 10.5509 5.27397H14.2959C14.4749 5.27397 14.62 5.13598 14.62 4.96575V0.308219C14.62 0.137995 14.4749 0 14.2959 0H10.5509Z" fill="#07B6D3"/>
</svg>
