<svg width="63" height="63" viewBox="0 0 63 63" fill="none" xmlns="http://www.w3.org/2000/svg">
<path opacity="0.4" d="M6.2998 12.6008C6.2998 9.12594 9.12496 6.30078 12.5998 6.30078H27.3162C28.9896 6.30078 30.5942 6.96031 31.7754 8.14156L42.259 18.635C43.4403 19.8162 44.0998 21.4208 44.0998 23.0942V39.3856H26.7748C23.3 39.3856 20.4748 42.2108 20.4748 45.6856V56.7106H12.5998C9.12496 56.7106 6.2998 53.8855 6.2998 50.4106V12.6008ZM26.7748 12.0594V21.2633C26.7748 22.5725 27.8281 23.6258 29.1373 23.6258H38.3412L26.7748 12.0594Z" fill="#0F1422"/>
<path d="M24.8066 45.6758C24.8066 44.593 25.6926 43.707 26.7754 43.707H29.9254C33.1837 43.707 35.8316 46.355 35.8316 49.6133C35.8316 52.8716 33.1837 55.5195 29.9254 55.5195H28.7441V58.2758C28.7441 59.3586 27.8582 60.2445 26.7754 60.2445C25.6926 60.2445 24.8066 59.3586 24.8066 58.2758V45.6758ZM28.7441 51.582H29.9254C31.0082 51.582 31.8941 50.6961 31.8941 49.6133C31.8941 48.5305 31.0082 47.6445 29.9254 47.6445H28.7441V51.582ZM37.4066 45.6758C37.4066 44.593 38.2926 43.707 39.3754 43.707H42.5254C45.3505 43.707 47.6441 46.0006 47.6441 48.8258V55.1258C47.6441 57.9509 45.3505 60.2445 42.5254 60.2445H39.3754C38.2926 60.2445 37.4066 59.3586 37.4066 58.2758V45.6758ZM41.3441 47.6445V56.307H42.5254C43.1751 56.307 43.7066 55.7755 43.7066 55.1258V48.8258C43.7066 48.1761 43.1751 47.6445 42.5254 47.6445H41.3441ZM51.9754 43.707H56.7004C57.7832 43.707 58.6691 44.593 58.6691 45.6758C58.6691 46.7586 57.7832 47.6445 56.7004 47.6445H53.9441V50.007H56.7004C57.7832 50.007 58.6691 50.893 58.6691 51.9758C58.6691 53.0586 57.7832 53.9445 56.7004 53.9445H53.9441V58.2758C53.9441 59.3586 53.0582 60.2445 51.9754 60.2445C50.8926 60.2445 50.0066 59.3586 50.0066 58.2758V45.6758C50.0066 44.593 50.8926 43.707 51.9754 43.707Z" fill="#0F1422"/>
</svg>
